<svg width="1024" height="1024" viewBox="0 0 1024 1024" fill="none" xmlns="http://www.w3.org/2000/svg">
<path d="M512.283 708.553L495.229 679.89L454.861 677.735L425.07 622.995C408.448 593.039 395.064 567.394 395.064 566.532C395.064 565.454 448.384 564.592 513.794 564.592C579.204 564.592 632.525 565.023 632.525 565.67C632.525 566.316 619.572 588.945 603.813 615.883C587.839 642.822 565.388 680.967 553.947 701.01C542.289 720.837 532.143 737 531.064 737C530.201 737 521.781 724.069 512.283 708.553Z" fill="black"/>
<path d="M290.149 511.145L240.282 425.588L340.232 424.941C395.279 424.726 485.514 424.726 540.562 424.941L640.727 425.588L577.26 535.498L376.714 536.791L359.876 566.747C350.593 583.341 342.39 596.918 341.527 596.918C340.663 596.703 317.565 558.342 290.149 511.145Z" fill="black"/>
<path d="M673.54 430.329L654.975 399.727L473.642 399.08L292.092 398.649L289.502 393.046C288.206 389.813 274.391 365.245 259.064 338.306C243.521 311.152 231 288.523 231 287.877C231 287.23 357.718 286.368 512.715 286.153C731.179 285.722 794.43 286.153 793.998 288.092C793.134 291.756 694.264 460.931 692.969 460.931C692.321 460.931 683.686 447.139 673.54 430.329Z" fill="black"/>
</svg>
