<svg width="1399" height="1603" viewBox="0 0 1399 1603" fill="none" xmlns="http://www.w3.org/2000/svg">
<path fill-rule="evenodd" clip-rule="evenodd" d="M686.587 1335.92C787.357 1363.54 901.52 1342.28 1005.19 1265.61C1212.54 1112.27 1299.4 795.332 1199.21 557.705C1149.11 438.892 1061.74 362.403 960.967 334.785L829.717 298.814C728.948 271.196 614.784 292.448 511.112 369.119C303.767 522.458 216.903 839.4 317.096 1077.03C367.192 1195.84 454.568 1272.33 555.337 1299.95L686.587 1335.92Z" fill="#F5A329"/>
<circle cx="299.874" cy="299.874" r="299.874" transform="matrix(-0.371269 -0.928525 0.792793 -0.609491 560.768 1259.13)" fill="white"/>
<path d="M525.03 410.041C706.909 270.214 923.398 329.548 1008.57 542.565C1093.75 755.582 1015.35 1041.62 833.475 1181.44C651.596 1321.27 435.107 1261.94 349.933 1048.92C264.758 835.903 343.152 549.867 525.03 410.041Z" stroke="white" stroke-width="26"/>
<path d="M600.358 662.512C600.288 658.328 604.746 655.618 608.435 657.602L863.87 794.933C867.591 796.934 867.752 802.207 864.161 804.422L786.828 852.129C783.305 854.302 778.73 851.935 778.469 847.803L776.718 820.055C776.598 818.163 775.51 816.467 773.839 815.568L604.201 724.364C602.45 723.423 601.345 721.609 601.312 719.624L600.358 662.512Z" fill="#F5A329"/>
<path d="M568.893 732.184C568.716 727.943 573.224 725.125 576.967 727.137L753.678 822.145C757.391 824.14 757.562 829.397 753.988 831.622L705.711 861.671C704.055 862.701 701.975 862.774 700.249 861.863L608.287 813.3C606.574 812.396 604.513 812.46 602.862 813.469L581.005 826.833C577.437 829.015 572.833 826.558 572.659 822.38L568.893 732.184Z" fill="#F5A329"/>
<path d="M606.803 840.033C606.807 835.892 611.23 833.257 614.881 835.22L712.665 887.792C716.397 889.799 716.546 895.092 712.932 897.296L636.104 944.156C632.596 946.296 628.062 943.957 627.772 939.858L626.001 914.835C625.875 913.055 624.889 911.446 623.359 910.524L609.407 902.111C607.758 901.117 606.75 899.332 606.752 897.409L606.803 840.033Z" fill="#F5A329"/>
</svg>
