<svg width="549" height="442" viewBox="0 0 549 442" fill="none" xmlns="http://www.w3.org/2000/svg">
<path d="M1.28404 14.8765C-2.43912 8.21079 2.37947 0 10.0145 0H538.644C546.344 0 551.155 8.33778 547.302 15.0044L464.325 158.554C460.545 165.093 451.157 165.242 447.172 158.825L420.409 115.725C418.584 112.787 415.371 111 411.913 111H60.8433C57.2198 111 53.8798 109.04 52.1129 105.876L1.28404 14.8765Z" fill="white"/>
<path d="M10.9074 154.093C6.96214 147.427 11.7671 139 19.5132 139H385.223C392.906 139 397.719 147.303 393.901 153.97L342.331 244.013C340.562 247.101 337.286 249.016 333.728 249.043L144.169 250.458C140.639 250.484 137.384 252.369 135.606 255.419L112.05 295.799C108.205 302.39 98.6928 302.42 94.8065 295.854L10.9074 154.093Z" fill="white"/>
<path d="M164.862 294.722C161.293 288.061 166.119 280 173.676 280H376.042C383.765 280 388.573 288.382 384.675 295.048L301.778 436.801C297.993 443.273 288.695 443.432 284.691 437.093L260.248 398.392C258.51 395.639 255.539 393.904 252.287 393.744L222.625 392.279C219.119 392.106 215.961 390.107 214.303 387.013L164.862 294.722Z" fill="white"/>
</svg>
